<svg id="Capa_1" enable-background="new 0 0 512 512" height="512" viewBox="0 0 512 512" width="512" xmlns="http://www.w3.org/2000/svg"><g><g><path d="m281.579 374.722c7.51-6.914 12.226-16.819 12.226-27.807 0-20.846-16.959-37.806-37.805-37.806s-37.805 16.96-37.805 37.806c0 10.989 4.716 20.894 12.226 27.807-24.914 10.135-42.531 34.596-42.531 63.107 0 4.143 3.358 7.5 7.5 7.5h121.219c4.143 0 7.5-3.357 7.5-7.5 0-28.511-17.617-52.972-42.53-63.107zm-48.384-27.807c0-12.575 10.23-22.806 22.805-22.806 12.574 0 22.805 10.23 22.805 22.806 0 12.574-10.23 22.805-22.805 22.805s-22.805-10.231-22.805-22.805zm-29.777 83.414c3.655-25.746 25.842-45.609 52.582-45.609 26.739 0 48.927 19.863 52.581 45.609z"/><path d="m406.085 346.915c0 10.989 4.716 20.894 12.227 27.807-24.914 10.135-42.531 34.596-42.531 63.107 0 4.143 3.357 7.5 7.5 7.5h121.219c4.143 0 7.5-3.357 7.5-7.5 0-28.511-17.617-52.972-42.531-63.107 7.51-6.914 12.226-16.819 12.226-27.807 0-20.846-16.959-37.806-37.805-37.806s-37.805 16.96-37.805 37.806zm90.387 83.414h-105.163c3.654-25.746 25.842-45.609 52.582-45.609 26.739 0 48.926 19.863 52.581 45.609zm-29.777-83.414c0 12.574-10.23 22.805-22.805 22.805s-22.806-10.23-22.806-22.805 10.23-22.806 22.806-22.806c12.575 0 22.805 10.231 22.805 22.806z"/><path d="m93.689 374.722c7.51-6.914 12.226-16.819 12.226-27.807 0-20.846-16.959-37.806-37.805-37.806s-37.805 16.96-37.805 37.806c0 10.989 4.716 20.894 12.226 27.807-24.914 10.136-42.531 34.596-42.531 63.107 0 4.143 3.358 7.5 7.5 7.5h121.22c4.142 0 7.5-3.357 7.5-7.5 0-28.511-17.617-52.972-42.531-63.107zm-48.384-27.807c0-12.575 10.23-22.806 22.805-22.806s22.805 10.23 22.805 22.806c0 12.574-10.23 22.805-22.805 22.805s-22.805-10.231-22.805-22.805zm-29.777 83.414c3.655-25.746 25.842-45.609 52.582-45.609s48.927 19.863 52.582 45.609z"/><path d="m70.13 288.754c4.142 0 7.5-3.357 7.5-7.5v-32.906h170.87v32.906c0 4.143 3.358 7.5 7.5 7.5 4.143 0 7.5-3.357 7.5-7.5v-32.906h170.87v32.906c0 4.143 3.357 7.5 7.5 7.5s7.5-3.357 7.5-7.5v-40.406c0-4.143-3.357-7.5-7.5-7.5h-178.37v-30.457h53.109c4.143 0 7.5-3.357 7.5-7.5v-34.346c0-4.143-3.357-7.5-7.5-7.5h-121.219c-4.142 0-7.5 3.357-7.5 7.5v34.346c0 4.143 3.358 7.5 7.5 7.5h53.11v30.457h-178.37c-4.142 0-7.5 3.357-7.5 7.5v40.406c0 4.142 3.358 7.5 7.5 7.5zm132.76-120.209h106.219v19.346h-106.219z"/><path d="m316.609 462.654h-121.219c-4.142 0-7.5 3.357-7.5 7.5v34.346c0 4.143 3.358 7.5 7.5 7.5h121.219c4.143 0 7.5-3.357 7.5-7.5v-34.346c0-4.142-3.357-7.5-7.5-7.5zm-7.5 34.346h-106.219v-19.346h106.219z"/><path d="m195.39 136.22h65.101c4.143 0 7.5-3.357 7.5-7.5s-3.357-7.5-7.5-7.5h-57.073c3.655-25.746 25.842-45.61 52.582-45.61 26.739 0 48.927 19.864 52.581 45.61h-13.081c-4.143 0-7.5 3.357-7.5 7.5s3.357 7.5 7.5 7.5h21.109c4.143 0 7.5-3.357 7.5-7.5 0-28.512-17.617-52.972-42.531-63.108 7.51-6.914 12.226-16.819 12.226-27.807.001-20.846-16.958-37.805-37.804-37.805s-37.805 16.959-37.805 37.805c0 10.989 4.716 20.894 12.226 27.807-24.914 10.135-42.531 34.596-42.531 63.108 0 4.142 3.358 7.5 7.5 7.5zm37.805-98.415c0-12.575 10.23-22.805 22.805-22.805 12.574 0 22.805 10.23 22.805 22.805s-10.231 22.804-22.805 22.804c-12.575 0-22.805-10.23-22.805-22.804z"/><path d="m504.5 462.654h-14.857c-4.143 0-7.5 3.357-7.5 7.5s3.357 7.5 7.5 7.5h7.357v19.346h-106.22v-19.346h63.822c4.143 0 7.5-3.357 7.5-7.5s-3.357-7.5-7.5-7.5h-71.322c-4.143 0-7.5 3.357-7.5 7.5v34.346c0 4.143 3.357 7.5 7.5 7.5h121.22c4.143 0 7.5-3.357 7.5-7.5v-34.346c0-4.142-3.357-7.5-7.5-7.5z"/><path d="m128.72 462.654h-14.857c-4.142 0-7.5 3.357-7.5 7.5s3.358 7.5 7.5 7.5h7.357v19.346h-106.22v-19.346h63.822c4.142 0 7.5-3.357 7.5-7.5s-3.358-7.5-7.5-7.5h-71.322c-4.142 0-7.5 3.357-7.5 7.5v34.346c0 4.143 3.358 7.5 7.5 7.5h121.22c4.142 0 7.5-3.357 7.5-7.5v-34.346c0-4.142-3.358-7.5-7.5-7.5z"/></g></g></svg>